<svg width="20" height="20" viewBox="0 0 20 20" fill="none" xmlns="http://www.w3.org/2000/svg">
<g id="Frame">
<path id="Vector" d="M7.50001 14.1667H5.83334C4.72827 14.1667 3.66846 13.7277 2.88706 12.9463C2.10566 12.1649 1.66667 11.1051 1.66667 10C1.66667 8.89493 2.10566 7.83512 2.88706 7.05372C3.66846 6.27232 4.72827 5.83333 5.83334 5.83333H7.50001" stroke="black" stroke-opacity="0.4" stroke-width="3" stroke-linecap="round" stroke-linejoin="round"/>
<path id="Vector_2" d="M12.5 5.83333H14.1667C15.2717 5.83333 16.3315 6.27232 17.1129 7.05372C17.8943 7.83512 18.3333 8.89493 18.3333 10C18.3333 11.1051 17.8943 12.1649 17.1129 12.9463C16.3315 13.7277 15.2717 14.1667 14.1667 14.1667H12.5" stroke="black" stroke-opacity="0.4" stroke-width="3" stroke-linecap="round" stroke-linejoin="round"/>
<path id="Vector_3" d="M6.66667 10H13.3333" stroke="black" stroke-opacity="0.4" stroke-width="3" stroke-linecap="round" stroke-linejoin="round"/>
</g>
</svg>
